<svg xmlns="http://www.w3.org/2000/svg" viewBox="0 0 480 480"><path fill="#7d8395" d="M129.18 167.06v89.12h22.14v15.59h-22.14v32.34h-17.9v-32.34H48.91v-16.75l66.6-87.97h13.67zm-61.98 89.12h44.08v-57.56h-.39l-43.7 57.56zM408.96 167.06v89.12h22.14v15.59h-22.14v32.34h-17.9v-32.34h-62.37v-16.75l66.6-87.97h13.67zm-61.98 89.12h44.08v-57.56h-.39l-43.7 57.56zM302.35 308.55c-2.09 2.16-8.94 4.39-13.29 4.39s-6.52-2.23-8.61-4.39c-2.01-2.08-3.92-4.04-7.74-4.04s-5.73 1.96-7.74 4.04c-2.1 2.16-4.26 4.39-8.61 4.39s-6.52-2.23-8.61-4.39c-2.01-2.08-3.92-4.04-7.74-4.04s-5.73 1.96-7.74 4.04c-2.09 2.16-4.26 4.39-8.61 4.39s-6.51-2.23-8.61-4.39c-2.02-2.07-3.92-4.04-7.74-4.04s-5.73 1.96-7.74 4.04c-2.09 2.16-4.26 4.39-8.61 4.39s-11.19-2.23-13.29-4.39c-1.94-1.99 5.16-84.29 5.16-84.29 0-31.59 25.61-57.2 57.2-57.2 15.8 0 30.1 6.4 40.44 16.75 10.35 10.35 16.75 24.65 16.75 40.44 0 0 7.09 82.3 5.16 84.29z" class="color7d8395 svgShape"/><ellipse cx="221.75" cy="218.13" fill="#fafafa" rx="8.7" ry="12.35" class="colorfafafa svgShape"/><ellipse cx="258.25" cy="218.13" fill="#fafafa" rx="8.7" ry="12.35" class="colorfafafa svgShape"/><ellipse cx="240" cy="254.34" fill="#fafafa" rx="8.7" ry="12.35" class="colorfafafa svgShape"/></svg>